<svg width="64" height="64" viewBox="0 0 64 64" fill="none" xmlns="http://www.w3.org/2000/svg">
<rect width="64" height="64" fill="white"/>
<path d="M3 48C3 55 13 55 13 48C13 41 13 12 13 12C13 6 16 4 21 4" stroke="black" stroke-width="2"/>
<path d="M13 13C15 13 20 13 21 13C22 13 23 14 23 15C23 16 23 17 23 18C23 19 22 20 21 20C20.2 20 15.3333 20 13 20" stroke="black" stroke-width="2"/>
<path d="M13 26C15 26 20 26 21 26C22 26 23 27 23 28C23 29 23 30 23 31C23 32 22 33 21 33C20.2 33 15.3333 33 13 33" stroke="black" stroke-width="2"/>
<path d="M13 39C15 39 20 39 21 39C22 39 23 40 23 41C23 42 23 43 23 44C23 45 22 46 21 46C20.2 46 15.3333 46 13 46" stroke="black" stroke-width="2"/>
<path d="M41 3V12" stroke="black" stroke-width="2"/>
<path d="M21 55C23.3333 55.1667 28 54 28 48C28 42 28 27.1667 28 20C28 17 30 12 41 12C52 12 54 17 54 20C54 20 54 31 54 40C54 49 48 49 48 55C48 61 55.5 62 59 60" stroke="black" stroke-width="2"/>
<path d="M41 17V47" stroke="black" stroke-width="2"/>
<path d="M34 29V21C34 18 38 17 41 17C44 17 48 18 48 21C48 23.4 48 27.3333 48 29" stroke="black" stroke-width="2"/>
<path d="M34 32H48" stroke="black" stroke-width="2"/>
<path d="M34 35C34 35 34 43 34 45C34 47 37 47 41 47C45 47 48 47 48 45V35" stroke="black" stroke-width="2"/>
</svg>
