<svg width="64" height="64" viewBox="0 0 64 64" fill="none" xmlns="http://www.w3.org/2000/svg">
<g clip-path="url(#clip0_1_2)">
<rect width="64" height="64" fill="white"/>
<rect x="2" y="2" width="60" height="60" rx="14" fill="white" stroke="black" stroke-width="4"/>
<path d="M2 46C2 53 12 53 12 46C12 39 12 10 12 10C12 4 15 2 20 2" stroke="black" stroke-width="2"/>
<path d="M12 11C14 11 19 11 20 11C21 11 22 12 22 13C22 14 22 15 22 16C22 17 21 18 20 18C19.2 18 14.3333 18 12 18" stroke="black" stroke-width="2"/>
<path d="M12 24C14 24 19 24 20 24C21 24 22 25 22 26C22 27 22 28 22 29C22 30 21 31 20 31C19.2 31 14.3333 31 12 31" stroke="black" stroke-width="2"/>
<path d="M12 37C14 37 19 37 20 37C21 37 22 38 22 39C22 40 22 41 22 42C22 43 21 44 20 44C19.2 44 14.3333 44 12 44" stroke="black" stroke-width="2"/>
<path d="M40 1V10" stroke="black" stroke-width="2"/>
<path d="M20 53C22.3333 53.1667 27 52 27 46C27 40 27 25.1667 27 18C27 15 29 10 40 10C51 10 53 15 53 18C53 18 53 29 53 38C53 47 47 47 47 53C47 59 54.5 60 58 58" stroke="black" stroke-width="2"/>
<path d="M40 15V45" stroke="black" stroke-width="2"/>
<path d="M33 27V19C33 16 37 15 40 15C43 15 47 16 47 19C47 21.4 47 25.3333 47 27" stroke="black" stroke-width="2"/>
<path d="M33 30H47" stroke="black" stroke-width="2"/>
<path d="M33 33C33 33 33 41 33 43C33 45 36 45 40 45C44 45 47 45 47 43V33" stroke="black" stroke-width="2"/>
</g>
<defs>
<clipPath id="clip0_1_2">
<rect width="64" height="64" fill="white"/>
</clipPath>
</defs>
</svg>
